# xmcd CD database file
#
# Track frame offsets:
#	150
#	10217
#	33117
#	57097
#	75733
#	98137
#	123105
#	141272
#	161349
#	176825
#	205535
#	222499
#	245975
#	257723
#
# Disc length: 3665 seconds
#
# Revision: 0
# Processed by: cddbd v1.5.2PL0 Copyright (c) Steve Scherf et al.
# Submitted via: CDex 1.70beta2
#
DISCID=bc0e4f0e
DTITLE=Joe Henry - Blood From Stars - EICP-1269
DYEAR=2009
DGENRE=Blues
TTITLE0=Prelude: Light No Lamp
TTITLE1=The Man I Keep Hid
TTITLE2=Channel
TTITLE3=This Is My Favorite Cage
TTITLE4=Deaty To The Storm
TTITLE5=All Blues Hail Mary
TTITLE6=Bellweather
TTITLE7=Progress of Love
TTITLE8=Over Her Shoulder
TTITLE9=Suit On A Frame
TTITLE10=Truce
TTITLE11=Stars
TTITLE12=Coda: Light No Lamp
TTITLE13=The Man I Keep Hid [Acoustic demo]
EXTD=YEAR: 2009
EXTT0=
EXTT1=
EXTT2=
EXTT3=
EXTT4=
EXTT5=
EXTT6=
EXTT7=
EXTT8=
EXTT9=
EXTT10=
EXTT11=
EXTT12=
EXTT13=
PLAYORDER=
